# xmcd CD database file
#
# Track frame offsets:
#	150
#	20150
#	43467
#	77052
#	103160
#	112335
#	140284
#	182210
#	210801
#	239390
#	263479
#
# Disc length: 3918 seconds
#
# Revision: 3
# Processed by: cddbd v1.5.2PL0 Copyright (c) Steve Scherf et al.
# Submitted via: CDex 1.51
#
DISCID=9c0f4c0b
DTITLE=Dean Evenson and Soundings Ensemble - Sound Massage
DYEAR=2002
DGENRE=New Age
TTITLE0=Mating Call
TTITLE1=Harmonic Heaven
TTITLE2=Touch Of Grace
TTITLE3=Floating To Forever
TTITLE4=Native Tongue
TTITLE5=Soft Summer Serenade
TTITLE6=Deep In The Heart
TTITLE7=Heart Of The Forest
TTITLE8=Sky Touching Earth
TTITLE9=Falling For You
TTITLE10=Timeless Spirit
EXTD=YEAR: 2002
EXTT0=
EXTT1=
EXTT2=
EXTT3=
EXTT4=
EXTT5=
EXTT6=
EXTT7=
EXTT8=
EXTT9=
EXTT10=
PLAYORDER=
